<svg xmlns="http://www.w3.org/2000/svg" viewBox="0 0 62 48"><defs><style>.cls-1{fill:#cdf0f0;}.cls-2{fill:#000064;opacity:0.1;}.cls-3{fill:#fff;opacity:0.5;}.cls-4{fill:none;stroke:#2e4369;stroke-linecap:round;stroke-linejoin:round;stroke-width:2px;}</style></defs><title>broken-clouds</title><g id="Layer_2" data-name="Layer 2"><g id="Layer_1-2" data-name="Layer 1"><path class="cls-1" d="M55,35A12,12,0,0,0,43,23c-.39,0-.77,0-1.15.06a16,16,0,0,0-30.72,4H11a10,10,0,0,0,0,20H43.07A12,12,0,0,0,55,35Z"/><path class="cls-2" d="M11,30a17.52,17.52,0,0,1,.25-2.83L11,27h0a10,10,0,0,0,0,20H28A17,17,0,0,1,11,30Z"/><path class="cls-3" d="M55,35A12,12,0,0,0,43,23c-.37,0-.73,0-1.09.05h-.06a16,16,0,0,0-12.13-9.82l-.53-.08c-.23,0-.47-.06-.7-.09C28,13,27.5,13,27,13s-1.05,0-1.56.08a15.86,15.86,0,0,0-9.68,4.56,21.88,21.88,0,0,1,21.65,6.75c-.37.19-.74.41-1.1.64.23,0,.46,0,.69,0A15,15,0,0,1,52,40a14.68,14.68,0,0,1-.39,3.34A11.92,11.92,0,0,0,55,35ZM40.77,23.21l-.06,0Z"/><path class="cls-1" d="M61,19A10,10,0,0,0,51,9a13,13,0,0,0-24.95,4v0c.31,0,.62,0,.93,0A16,16,0,0,1,41.85,23.05c.38,0,.76-.05,1.15-.05a12,12,0,0,1,10.23,5.75h0A10,10,0,0,0,61,19Z"/><path class="cls-2" d="M61,19A10,10,0,0,0,51,9a13,13,0,0,0-24.95,4v0c.31,0,.62,0,.93,0A16,16,0,0,1,41.85,23.05c.38,0,.76-.05,1.15-.05a12,12,0,0,1,10.23,5.75h0A10,10,0,0,0,61,19Z"/><path class="cls-4" d="M53.24,28.75A10,10,0,0,0,51,9a13,13,0,0,0-24.95,4"/><path class="cls-4" d="M55,35A12,12,0,0,0,43,23c-.39,0-.77,0-1.15.05a16,16,0,0,0-30.72,4H11a10,10,0,0,0,0,20H43.07A12,12,0,0,0,55,35Z"/></g></g></svg>