<svg xmlns="http://www.w3.org/2000/svg" viewBox="0 0 61.61 61.85"><defs><style>.cls-1{fill:#e6f0fa;}.cls-2{fill:#000064;opacity:0.15;}.cls-3{fill:none;stroke:#2e4369;stroke-linecap:round;stroke-linejoin:round;stroke-width:2px;}</style></defs><title>clear-sky-night</title><g id="Layer_2" data-name="Layer 2"><g id="Layer_1-2" data-name="Layer 1"><path class="cls-1" d="M33.63,1A25,25,0,0,1,1,35.46,30,30,0,1,0,33.63,1Z"/><path class="cls-2" d="M30.61,49.85A29.88,29.88,0,0,1,6.21,37.24,25,25,0,0,1,1,35.46a30,30,0,0,0,59.61-4.61,30.38,30.38,0,0,0-.51-5.52A30,30,0,0,1,30.61,49.85Z"/><path class="cls-3" d="M33.63,1A25,25,0,0,1,1,35.46,30,30,0,1,0,33.63,1Z"/></g></g></svg>