<svg xmlns="http://www.w3.org/2000/svg" viewBox="0 0 62 62"><defs><style>.cls-1{fill:#fc0;}.cls-2{fill:#fff;opacity:0.5;}.cls-3{fill:none;stroke:#2e4369;stroke-linecap:round;stroke-linejoin:round;stroke-width:2px;}</style></defs><title>clear-sky</title><g id="Layer_2" data-name="Layer 2"><g id="Layer_1-2" data-name="Layer 1"><circle class="cls-1" cx="31.01" cy="31.01" r="14"/><path class="cls-2" d="M31,17a14,14,0,0,0-11.27,5.72A14,14,0,0,1,39.29,42.28,14,14,0,0,0,31,17Z"/><circle class="cls-3" cx="31.01" cy="31.01" r="14"/><line class="cls-3" x1="31" y1="1" x2="31" y2="9"/><line class="cls-3" x1="31" y1="53" x2="31" y2="61"/><line class="cls-3" x1="61" y1="31" x2="53" y2="31"/><line class="cls-3" x1="9" y1="31" x2="1" y2="31"/><line class="cls-3" x1="9.79" y1="9.79" x2="15.44" y2="15.44"/><line class="cls-3" x1="46.56" y1="46.56" x2="52.21" y2="52.21"/><line class="cls-3" x1="52.21" y1="9.79" x2="46.56" y2="15.44"/><line class="cls-3" x1="15.44" y1="46.56" x2="9.79" y2="52.21"/></g></g></svg>