<svg xmlns="http://www.w3.org/2000/svg" viewBox="0 0 62 48"><defs><style>.cls-1{fill:#cdf0f0;}.cls-2,.cls-5{fill:#000064;}.cls-2{opacity:0.1;}.cls-3{fill:#fff;opacity:0.5;}.cls-4{fill:#e6f0fa;}.cls-5{opacity:0.15;}.cls-6{fill:none;stroke:#2e4369;stroke-linecap:round;stroke-linejoin:round;stroke-width:2px;}</style></defs><title>few-clouds-night</title><g id="Layer_2" data-name="Layer 2"><g id="Layer_1-2" data-name="Layer 1"><path class="cls-1" d="M61,35A12,12,0,0,0,49,23c-.39,0-.78,0-1.16.06a16,16,0,0,0-30.71,4H17a10,10,0,0,0,0,20H49.07A12,12,0,0,0,61,35Z"/><path class="cls-2" d="M17,30a17.52,17.52,0,0,1,.25-2.83L17,27h0a10,10,0,0,0,0,20H34A17,17,0,0,1,17,30Z"/><path class="cls-3" d="M61,35A12,12,0,0,0,49,23c-.37,0-.73,0-1.09.05h-.07a16,16,0,0,0-12.12-9.82l-.53-.08c-.23,0-.47-.06-.7-.09C34,13,33.5,13,33,13s-1.05,0-1.56.08a15.86,15.86,0,0,0-9.68,4.56,21.88,21.88,0,0,1,21.65,6.75,10.88,10.88,0,0,0-1.1.64c.23,0,.46,0,.69,0A15,15,0,0,1,58,40a14.68,14.68,0,0,1-.39,3.34A12,12,0,0,0,61,35ZM46.77,23.21l-.06,0Z"/><path class="cls-4" d="M17.13,27A16,16,0,0,1,28.92,13.54,14,14,0,0,0,15,1c-.28,0-.55,0-.82,0A10,10,0,0,1,5,15a10.05,10.05,0,0,1-4-.82c0,.27,0,.54,0,.82A14,14,0,0,0,11.6,28.58h0A9.83,9.83,0,0,1,17,27Z"/><path class="cls-5" d="M11.61,28.59A9.83,9.83,0,0,1,17,27h.13A16,16,0,0,1,28.92,13.54c0-.09,0-.18,0-.27A15.95,15.95,0,0,0,10.13,27H10a9.85,9.85,0,0,0-1.89.18,13.78,13.78,0,0,0,3.49,1.4Z"/><path class="cls-6" d="M28.93,13.57A14,14,0,0,0,15,1c-.28,0-.55,0-.82,0A10,10,0,0,1,5,15a10.05,10.05,0,0,1-4-.82c0,.27,0,.54,0,.82A14,14,0,0,0,11.6,28.58"/><path class="cls-6" d="M61,35A12,12,0,0,0,49,23c-.39,0-.77,0-1.15.05a16,16,0,0,0-30.72,4H17a10,10,0,0,0,0,20H49.07A12,12,0,0,0,61,35Z"/></g></g></svg>