<svg xmlns="http://www.w3.org/2000/svg" viewBox="0 0 62.01 49.99"><defs><style>.cls-1{fill:#cdf0f0;}.cls-2{fill:#fc0;}.cls-3{fill:#000064;opacity:0.1;}.cls-4{fill:#fff;opacity:0.5;}.cls-5{fill:none;stroke:#2e4369;stroke-linecap:round;stroke-linejoin:round;stroke-width:2px;}</style></defs><title>few-clouds-day</title><g id="Layer_2" data-name="Layer 2"><g id="Layer_1-2" data-name="Layer 1"><path class="cls-1" d="M51,29a13,13,0,0,0-25,4.11A7.47,7.47,0,0,0,25,33a8,8,0,1,0,0,16H51a10,10,0,0,0,0-20Z"/><path class="cls-2" d="M33,22.48h0A10,10,0,1,0,23,33a9.7,9.7,0,0,0,3.11-.5h0A13,13,0,0,1,33,22.48Z"/><path class="cls-3" d="M26.12,32.5h0a13,13,0,0,1,6.86-10h0a9.67,9.67,0,0,0-.18-1.42A13,13,0,0,0,21.1,32.81,10,10,0,0,0,23,33,9.7,9.7,0,0,0,26.12,32.5Z"/><path class="cls-3" d="M26,35a14.28,14.28,0,0,1,.14-1.86l-.07-.07v0A7.47,7.47,0,0,0,25,33a8,8,0,1,0,0,16H40A14,14,0,0,1,26,35Z"/><path class="cls-4" d="M47.17,29.76a10.36,10.36,0,0,0-3.52,2.46A12.16,12.16,0,0,1,46,32,12,12,0,0,1,58,44a12.16,12.16,0,0,1-.23,2.35A10,10,0,0,0,51.65,29h0c-.21,0-.42,0-.63,0a13,13,0,0,0-20.76-4.58A17.71,17.71,0,0,1,34,24,17.9,17.9,0,0,1,47.17,29.76Z"/><path class="cls-5" d="M26.12,32.5A9.7,9.7,0,0,1,23,33,10,10,0,1,1,33,22.47"/><line class="cls-5" x1="23.01" y1="1" x2="23.01" y2="7.02"/><line class="cls-5" x1="7.02" y1="23.01" x2="1" y2="23.01"/><line class="cls-5" x1="7.45" y1="7.45" x2="11.7" y2="11.7"/><line class="cls-5" x1="38.57" y1="7.45" x2="34.32" y2="11.7"/><line class="cls-5" x1="11.7" y1="34.32" x2="7.45" y2="38.57"/><path class="cls-5" d="M51,29a13,13,0,0,0-25,4.11A7.47,7.47,0,0,0,25,33a8,8,0,1,0,0,16H51a10,10,0,0,0,0-20Z"/></g></g></svg>