<svg xmlns="http://www.w3.org/2000/svg" viewBox="0 0 62 58"><defs><style>.cls-1{fill:#cdf0f0;}.cls-2{opacity:0.5;}.cls-3{fill:#fff;}.cls-4{fill:none;stroke:#2e4369;stroke-linecap:round;stroke-linejoin:round;stroke-width:2px;}</style></defs><title>mist</title><g id="Layer_2" data-name="Layer 2"><g id="Layer_1-2" data-name="Layer 1"><path class="cls-1" d="M57,1H1C24.5,13.83-.67,18.08,16.5,32.33,29,43,30.83,49.33,27,57h4S50.24,42.58,45,33C28.42,12.5,72.42,21.83,57,1Z"/><g class="cls-2"><path class="cls-3" d="M39,1H21.33c7.4,12.83-.52,17.08,4.88,31.33,3.93,10.67,4.51,17,3.3,24.67h1.26s6.06-14.42,4.41-24C30,12.5,43.8,21.83,39,1Z"/></g><line class="cls-4" x1="1" y1="1" x2="57" y2="1"/><line class="cls-4" x1="11" y1="9" x2="61" y2="9"/><line class="cls-4" x1="7" y1="17" x2="51" y2="17"/><line class="cls-4" x1="11" y1="25" x2="41" y2="25"/><line class="cls-4" x1="17" y1="33" x2="45" y2="33"/><line class="cls-4" x1="25" y1="41" x2="45" y2="41"/><line class="cls-4" x1="29" y1="49" x2="39" y2="49"/><line class="cls-4" x1="27" y1="57" x2="31" y2="57"/></g></g></svg>