<svg xmlns="http://www.w3.org/2000/svg" viewBox="0 0 60.01 62"><defs><style>.cls-1{fill:#cdf0f0;}.cls-2{fill:#000064;opacity:0.1;}.cls-3{fill:#fff;opacity:0.5;}.cls-4{fill:#fc0;}.cls-5{fill:none;stroke:#2e4369;stroke-linecap:round;stroke-linejoin:round;stroke-width:2px;}</style></defs><title>rain</title><g id="Layer_2" data-name="Layer 2"><g id="Layer_1-2" data-name="Layer 1"><path class="cls-1" d="M49,23a13,13,0,0,0-25,4.11A8.9,8.9,0,0,0,23,27a8,8,0,1,0,0,16H49a10,10,0,0,0,0-20Z"/><path class="cls-2" d="M24,29a12.76,12.76,0,0,1,.14-1.87l-.07-.06v0A8.9,8.9,0,0,0,23,27a8,8,0,1,0,0,16H38A14,14,0,0,1,24,29Z"/><path class="cls-3" d="M45.18,23.77a9.91,9.91,0,0,0-3.52,2.46A12,12,0,0,1,56,38a11.33,11.33,0,0,1-.24,2.34A10,10,0,0,0,49.66,23h0c-.2,0-.41,0-.62,0a13,13,0,0,0-20.76-4.58A17.71,17.71,0,0,1,32,18,17.9,17.9,0,0,1,45.18,23.77Z"/><path class="cls-4" d="M23,27a7.47,7.47,0,0,1,1.06.11A13,13,0,0,1,30.16,17h0A10,10,0,1,0,16.73,30.05h0A8,8,0,0,1,23,27Z"/><path class="cls-2" d="M16.73,30.05h0A8,8,0,0,1,23,27a7.47,7.47,0,0,1,1.06.11A13,13,0,0,1,30.16,17h0a10,10,0,0,0-.94-1.66A13,13,0,0,0,19.07,27.1,8.9,8.9,0,0,0,18,27a7.91,7.91,0,0,0-4,1.1A10.1,10.1,0,0,0,16.73,30.05Z"/><path class="cls-5" d="M16.73,30A10,10,0,1,1,30.16,17"/><line class="cls-5" x1="21.01" y1="1" x2="21.01" y2="5.02"/><line class="cls-5" x1="5.02" y1="21.01" x2="1" y2="21.01"/><line class="cls-5" x1="7.45" y1="7.45" x2="9.7" y2="9.7"/><line class="cls-5" x1="34.57" y1="7.45" x2="32.32" y2="9.7"/><line class="cls-5" x1="9.7" y1="32.31" x2="7.45" y2="34.57"/><path class="cls-5" d="M49,23a13,13,0,0,0-25,4.1A9.28,9.28,0,0,0,23,27a8,8,0,0,0,0,16H49a10,10,0,0,0,0-20Z"/><line class="cls-5" x1="19.01" y1="49" x2="17.01" y2="51"/><line class="cls-5" x1="29.01" y1="49" x2="23.01" y2="56"/><line class="cls-5" x1="39.01" y1="49" x2="37.01" y2="51"/><line class="cls-5" x1="49.01" y1="49" x2="42.01" y2="57"/><line class="cls-5" x1="14.46" y1="54.67" x2="14.46" y2="54.67"/><line class="cls-5" x1="19.4" y1="61" x2="19.4" y2="61"/><line class="cls-5" x1="34.46" y1="54.67" x2="34.46" y2="54.67"/><line class="cls-5" x1="39.4" y1="61" x2="39.4" y2="61"/></g></g></svg>