<svg xmlns="http://www.w3.org/2000/svg" viewBox="0 0 62 38.01"><defs><style>.cls-1{fill:#cdf0f0;}.cls-2{fill:#000064;opacity:0.1;}.cls-3{fill:#fff;opacity:0.5;}.cls-4{fill:none;stroke:#2e4369;stroke-linecap:round;stroke-linejoin:round;stroke-width:2px;}</style></defs><title>scattered-clouds</title><g id="Layer_2" data-name="Layer 2"><g id="Layer_1-2" data-name="Layer 1"><path class="cls-1" d="M48,11l-.5,0a17,17,0,0,0-32.29,4.45A11,11,0,1,0,12,37H48a13,13,0,1,0,0-26Z"/><path class="cls-2" d="M15,19a18.17,18.17,0,0,1,.34-3.48l-.16,0A11.12,11.12,0,0,0,12,15a11,11,0,0,0,0,22H33A18,18,0,0,1,15,19Z"/><path class="cls-3" d="M61,24A13,13,0,0,0,48,11c-.17,0-.33,0-.5,0A17,17,0,0,0,35.17,1.31c-.39-.07-.78-.14-1.18-.18l-.25,0C33.17,1.05,32.59,1,32,1a18.41,18.41,0,0,0-3.17.29,16.9,16.9,0,0,0-8.26,4.15A22.87,22.87,0,0,1,42,12.51,13.34,13.34,0,0,0,37.81,16,14.95,14.95,0,0,1,58,30a15.54,15.54,0,0,1-.23,2.57A13,13,0,0,0,61,24Z"/><path class="cls-4" d="M48,11c-.17,0-.33,0-.5,0a17,17,0,0,0-32.29,4.45A11,11,0,1,0,12,37H48a13,13,0,0,0,0-26Z"/></g></g></svg>