<svg xmlns="http://www.w3.org/2000/svg" viewBox="0 0 62 62"><defs><style>.cls-1{fill:#cdf0f0;}.cls-2{fill:#000064;opacity:0.1;}.cls-3{fill:#fff;opacity:0.5;}.cls-4{fill:none;stroke:#2e4369;stroke-linecap:round;stroke-linejoin:round;stroke-width:2px;}</style></defs><title>shower-rain</title><g id="Layer_2" data-name="Layer 2"><g id="Layer_1-2" data-name="Layer 1"><path class="cls-1" d="M48,11c-.17,0-.33,0-.5,0a17,17,0,0,0-32.29,4.45A11,11,0,1,0,12,37H48a13,13,0,0,0,0-26Z"/><path class="cls-2" d="M15,19a18.09,18.09,0,0,1,.34-3.48l-.16,0A10.78,10.78,0,0,0,12,15a11,11,0,0,0,0,22H33A18,18,0,0,1,15,19Z"/><path class="cls-3" d="M61,24A13,13,0,0,0,48,11c-.17,0-.33,0-.5,0A17,17,0,0,0,35.17,1.3c-.39-.07-.78-.14-1.18-.18l-.25,0A16.61,16.61,0,0,0,32,1a17.38,17.38,0,0,0-3.17.29,16.78,16.78,0,0,0-8.26,4.15A22.87,22.87,0,0,1,42,12.5a13.07,13.07,0,0,0-4.16,3.44A15,15,0,0,1,58,30a14.34,14.34,0,0,1-.24,2.56A12.93,12.93,0,0,0,61,24Z"/><path class="cls-4" d="M48,11c-.17,0-.33,0-.5,0a17,17,0,0,0-32.29,4.45A11,11,0,1,0,12,37H48a13,13,0,0,0,0-26Z"/><line class="cls-4" x1="3" y1="54.99" x2="1" y2="57.49"/><line class="cls-4" x1="11" y1="45" x2="7.45" y2="49.43"/><line class="cls-4" x1="11.79" y1="59" x2="10.19" y2="61"/><line class="cls-4" x1="23" y1="45" x2="16.63" y2="52.95"/><line class="cls-4" x1="28.66" y1="52.91" x2="25" y2="57.49"/><line class="cls-4" x1="35" y1="45" x2="33.4" y2="47"/><line class="cls-4" x1="38.35" y1="55.8" x2="34.19" y2="61"/><line class="cls-4" x1="47" y1="45" x2="43.1" y2="49.87"/></g></g></svg>