<svg xmlns="http://www.w3.org/2000/svg" viewBox="0 0 62 54.94"><defs><style>.cls-1{fill:#cdf0f0;}.cls-2{fill:#000064;opacity:0.1;}.cls-3{fill:#fff;opacity:0.5;}.cls-4{fill:#ff6;}.cls-5{fill:none;stroke:#2e4369;stroke-linecap:round;stroke-linejoin:round;stroke-width:2px;}</style></defs><title>thunderstorm</title><g id="Layer_2" data-name="Layer 2"><g id="Layer_1-2" data-name="Layer 1"><path class="cls-1" d="M48,11l-.5,0a17,17,0,0,0-32.29,4.45A11,11,0,1,0,12,36.94H48a13,13,0,1,0,0-26Z"/><path class="cls-2" d="M15,18.94a18.17,18.17,0,0,1,.34-3.48l-.16-.05A11.12,11.12,0,0,0,12,14.94a11,11,0,0,0,0,22H33A18,18,0,0,1,15,18.94Z"/><path class="cls-3" d="M61,23.94a13,13,0,0,0-13-13c-.17,0-.33,0-.5,0A17,17,0,0,0,35.17,1.24c-.39-.07-.78-.14-1.18-.18l-.25,0A16.61,16.61,0,0,0,32,.94a17.47,17.47,0,0,0-3.17.29,16.9,16.9,0,0,0-8.26,4.15A22.87,22.87,0,0,1,42,12.44a13.17,13.17,0,0,0-4.16,3.44A15,15,0,0,1,58,29.94a15.33,15.33,0,0,1-.23,2.56A13,13,0,0,0,61,23.94Z"/><polygon class="cls-4" points="35.74 23.94 21 39.94 28.47 39.94 25.21 53.94 41 36.94 33.63 36.94 35.74 23.94"/><path class="cls-5" d="M41,36.94h7A13,13,0,1,0,48,11l-.5,0a17,17,0,0,0-32.29,4.45A11,11,0,1,0,12,36.94H23.76"/><polygon class="cls-5" points="35.74 23.94 21 39.94 28.47 39.94 25.21 53.94 41 36.94 33.63 36.94 35.74 23.94"/></g></g></svg>